<?xml version="1.0" encoding="utf-8"?>
<!-- Generator: Adobe Illustrator 27.2.0, SVG Export Plug-In . SVG Version: 6.00 Build 0)  -->
<svg version="1.1" id="Layer_1" xmlns="http://www.w3.org/2000/svg" xmlns:xlink="http://www.w3.org/1999/xlink" x="0px" y="0px"
	 viewBox="0 0 523 501" style="enable-background:new 0 0 523 501;" xml:space="preserve">
<style type="text/css">
	.st0{fill:#F7931E;stroke:#F7931E;stroke-miterlimit:10;}
	.st1{fill:none;stroke:#F15A24;stroke-miterlimit:10;}
	.st2{fill:#FFFFFF;}
</style>
<path class="st0" d="M339,441.7c-7.5,4.6-14.5,8.5-14,19.5c0.4,10.4-8.7,16.2-19.4,16.5c-21.1,0.5-42.3,0.1-63.4,0.1
	c-6,0-13.2-1.6-14.9-6.2c-6.4-17.9-23.4-31.8-21.9-52.5c0.6-7.7,0.1-14.4-11.2-13.2c-8.9,0.9-11.2-5-10.2-11.3
	c5.4-33-5.6-58.7-30.8-82.7c-23.9-22.7-30.5-54.8-33-86c-1.4-17.9,3.4-36,10.8-53c3-6.9,6.4-13.6,9.7-20.4
	c19.8-26.7,42.9-49.9,76.4-60.9c82.5-27.1,180.1,5.5,203.8,98.3c14.4,56.3-0.7,106.6-48,145.6c-5.1,4.2-6.3,8.1-6.3,13.6
	c0.1,14.6-0.1,29.2,0,43.8c0,7.5-2.7,13.4-11.5,12.7c-11.7-0.8-13.4,5.1-12.5,13.9C343.5,427.2,341.8,434.5,339,441.7z M321.2,316
	c0,20.6-0.1,41.1,0,61.7c0.1,15.4,4,17.5,19.7,13.8c11.9-2.8,11.4-11,10.5-19c-2.7-24.4,3.7-43.3,23.6-61.7
	c56.5-52.5,47.9-147.1-25.2-193.1C293.4,82,211.8,89,165.6,145.9c-39.8,49-40.5,109.7-1.7,154.9c22.3,26.1,41.6,48.3,34.9,83.2
	c-1.4,7.2,3.6,8.6,10.4,9.2c13.9,1.1,21-2,20.6-17.5c-1-39.5-0.6-79-0.1-118.6c0.1-8.9-2.1-15.9-9.8-21c-4.9-3.2-10.5-7.2-6.4-12.8
	c3.9-5.2,9.9-2.8,14.9,1.1c9.7,7.6,19.6,7.6,29.4,0.1c8.7-6.7,21.1-6.7,27.3-2.4c14.1,9.9,25.2,9,38.2,0c3.3-2.3,9.1-3.5,11.8,1.8
	c1.8,3.6,0.9,7.7-3.4,9.8c-11.2,5.6-10.7,15.5-10.6,25.4C321.3,278.1,321.2,297,321.2,316z M305.4,318.8c0-14.1-0.1-28.1,0-42.2
	c0.2-15.2,3.5-31-18.8-36.7c-5.9-1.5-12.8-10.2-17.5-4.7c-7.7,8.9-25.8,7-25.1,24.7c1.2,29.1,0.3,58.4,0.3,87.6
	c0,46.4,0,46.2,49.3,42.9c8.8-0.6,12-3.4,11.9-11.6C305.1,358.8,305.3,338.8,305.4,318.8z M271.4,434c0,0,0-0.1,0-0.1
	c13.7,0,27.4-0.7,41,0.2c13,0.8,12.8-6.3,13.2-15.1c0.4-9.8-2.9-13.3-13.5-13.1c-26.2,0.6-52.5,0.4-78.7,0.1
	c-9.2-0.1-15.6,0.9-14.4,12c1,9.1,0.9,17.3,14.7,16.2C246.2,433.2,258.9,434,271.4,434z M274.5,449.8
	C274.5,449.8,274.5,449.8,274.5,449.8c-10.2,0.1-20.4-0.1-30.6,0.1c-3.5,0.1-6.8,1.3-7,5.5c-0.3,4.3,1.6,8.1,6.1,8.1
	c20.4,0.3,40.8,0.2,61.3-0.1c4.2-0.1,7.4-2.6,7.3-7.4c-0.1-5.1-3.8-6.1-8.1-6.2C293.8,449.7,284.1,449.8,274.5,449.8z"/>
<path class="st0" d="M472.9,218.2c2.3,0,4.6-0.4,6.8,0.1c5.9,1.1,15.4-3.5,16.3,6.3c0.9,10.5-8.5,9-15.7,9.1
	c-6.2,0.1-12.5-0.1-18.7,0c-6.2,0.1-11.6-1.1-12.2-8c-0.7-8.3,6.1-7.2,11.6-7.4C464.9,218.1,468.9,218.2,472.9,218.2z"/>
<path class="st0" d="M433.8,82.4c-0.1,2.3-29.6,30.2-31.2,29.4c-4.2-1.9-9.5-6.2-6.6-9.7c8-9.6,17-18.8,27.1-26.5
	C427.9,72.1,431.2,78.9,433.8,82.4z"/>
<path class="st0" d="M267.5,36.5c3.2-5.4-6.6-19.2,6.4-19.4c13.7-0.2,4.8,13.3,6.7,20.5c1.3,5,0.2,10.6,0.1,16
	c-0.1,4-0.7,7.4-6.3,7.5c-5.3,0.1-6.9-2.7-7-7C267.4,48.7,267.5,43.4,267.5,36.5z"/>
<path class="st0" d="M119.9,90.2c-1.3-4.1-9.3-6.4-3.4-12.3c4.6-3,8.6-4.1,13.2,0.8c6,6.5,12.7,12.2,19.1,18.3
	c3.3,3.1,7,6.3,1.7,10.6c-4.3,3.5-8.1,2.5-12-1C132.4,101.1,126.1,95.7,119.9,90.2z"/>
<path class="st0" d="M433.7,369.3c-3.6,3-5.9,10.8-13,4.7c-8.4-7.2-16.4-15-24.1-22.9c-4.7-4.9-0.7-7.9,3.9-9.6
	C404.7,339.9,434.1,364.5,433.7,369.3z"/>
<path class="st0" d="M123.1,376.2c-3.4-0.1-5.2-3-7.5-5.3c-3-3-0.1-4.7,1.8-6.5c7.8-7.5,15.8-15,23.7-22.5c2.8-2.6,5.7-3.8,8.4-0.4
	c1.6,2,3.2,4.4,3.7,6.8C153.6,350.8,126.2,376,123.1,376.2z"/>
<path class="st0" d="M77,234.2c-8.4-3.3-24.2,5-24.1-7.7c0.1-11.8,15.6-5.2,23.7-5.3c7.2-0.1,21.7-7.1,21.3,6.6
	C97.7,239,84,231,77,234.2z"/>
<path class="st1" d="M321.2,316c0-19,0.1-37.9-0.1-56.9c-0.1-9.9-0.7-19.7,10.6-25.4c4.3-2.1,5.1-6.2,3.4-9.8
	c-2.6-5.3-8.4-4.1-11.8-1.8c-13,9-24.2,9.8-38.2,0c-6.2-4.4-18.6-4.4-27.3,2.4c-9.8,7.6-19.7,7.5-29.4-0.1
	c-4.9-3.9-10.9-6.3-14.9-1.1c-4.2,5.6,1.5,9.5,6.4,12.8c7.6,5.1,9.9,12.1,9.8,21c-0.5,39.5-0.9,79.1,0.1,118.6
	c0.4,15.4-6.7,18.5-20.6,17.5c-6.8-0.5-11.8-2-10.4-9.2c6.7-34.9-12.6-57.1-34.9-83.2c-38.7-45.2-38-105.9,1.7-154.9
	c46.2-56.9,127.7-63.9,184.2-28.3c73.1,46.1,81.6,140.7,25.2,193.1c-19.9,18.5-26.3,37.4-23.6,61.7c0.9,8,1.3,16.2-10.5,19
	c-15.6,3.7-19.5,1.6-19.7-13.8C321,357.1,321.2,336.6,321.2,316z"/>
<path class="st1" d="M305.3,318.8c0,20-0.2,40,0.1,60c0.1,8.2-3.1,11-11.9,11.6c-49.3,3.3-49.3,3.5-49.3-42.9
	c0-29.2,0.9-58.4-0.3-87.6c-0.8-17.7,17.4-15.8,25.1-24.7c4.7-5.4,11.7,3.2,17.5,4.7c22.2,5.7,19,21.5,18.8,36.7
	C305.2,290.6,305.4,304.7,305.3,318.8z"/>
<path class="st1" d="M271.4,434c-12.6,0-25.1-0.7-37.6,0.2c-13.8,1-13.7-7.1-14.7-16.2c-1.2-11.2,5.1-12.1,14.4-12
	c26.2,0.3,52.5,0.5,78.7-0.1c10.6-0.2,13.9,3.3,13.5,13.1c-0.4,8.9-0.2,16-13.2,15.1c-13.6-0.9-27.4-0.2-41-0.2
	C271.4,433.9,271.4,433.9,271.4,434z"/>
<path class="st1" d="M274.5,449.8c9.6,0,19.3-0.1,28.9,0c4.3,0,8,1.1,8.1,6.2c0.1,4.7-3.1,7.3-7.3,7.4c-20.4,0.4-40.8,0.4-61.3,0.1
	c-4.5-0.1-6.4-3.9-6.1-8.1c0.3-4.1,3.5-5.4,7-5.5C254,449.7,264.2,449.8,274.5,449.8C274.5,449.8,274.5,449.8,274.5,449.8z"/>
<path class="st2" d="M996.1,288.1c-0.2-0.6-0.5-1.2-1-1.6c-0.3-0.3-0.7-0.5-1-0.8c-0.8-0.4-1.6-0.7-2.5-0.7
	c-0.4,0.1-0.9,0.1-1.3,0.2c-0.8,0.2-1.6,0.7-2.2,1.3c-0.3,0.3-0.7,0.7-1,1c-0.5,0.4-0.8,1-1,1.6c-0.3,0.6-0.5,1.2-0.4,1.9
	c0,0.7,0.1,1.3,0.4,1.9c0.2,0.6,0.5,1.2,1,1.6c0.3,0.3,0.7,0.5,1,0.8c0.8,0.4,1.6,0.7,2.5,0.7c0.4-0.1,0.9-0.1,1.3-0.2
	c0.8-0.2,1.6-0.7,2.2-1.3c0.3-0.3,0.7-0.7,1-1c0.5-0.4,0.8-1,1-1.6c0.3-0.6,0.5-1.2,0.4-1.9C996.5,289.3,996.4,288.7,996.1,288.1z"
	/>
</svg>
