<svg id="Layer_1" data-name="Layer 1" xmlns="http://www.w3.org/2000/svg" viewBox="0 0 297.12 95.46"><defs><style>.cls-1{fill:#fb9c25;}.cls-2{fill:#fff;}</style></defs><title>QuestForSpaceWhite</title><path class="cls-1" d="M89.12,29.5c0-8.75,0-10.36-.12-12.21s-.57-2.88-2.47-3.28a11.5,11.5,0,0,0-2.25-.17c-.63,0-1-.12-1-.52s.4-.52,1.27-.52c3.05,0,6.68.17,8.41.17,1.38,0,5-.17,7.09-.17.86,0,1.26.12,1.26.52s-.34.52-.92.52a8.3,8.3,0,0,0-1.67.17c-1.56.29-2,1.27-2.13,3.28-.12,1.85-.12,3.46-.12,12.21v8.07c0,8.35,1.67,11.87,4.5,14.17a10.66,10.66,0,0,0,7.2,2.36,11.27,11.27,0,0,0,8-3.11c3.17-3.16,3.34-8.35,3.34-14.28V29.5c0-8.75,0-10.36-.12-12.21s-.57-2.88-2.47-3.28a10.8,10.8,0,0,0-2.08-.17c-.63,0-1-.12-1-.52s.41-.52,1.21-.52c2.94,0,6.57.17,6.63.17.69,0,4.32-.17,6.57-.17.8,0,1.21.12,1.21.52s-.35.52-1,.52a8.23,8.23,0,0,0-1.67.17c-1.56.29-2,1.27-2.13,3.28-.12,1.85-.12,3.46-.12,12.21v6.17c0,6.39-.63,13.19-5.47,17.34a17.21,17.21,0,0,1-12,4.15c-3.06,0-8.59-.18-12.79-4-2.94-2.65-5.13-6.91-5.13-15.26V29.5" transform="translate(-0.87 -0.26)"/><path class="cls-1" d="M139.69,29.5c0-8.75,0-10.36-.11-12.21S139,14.41,137.1,14a11.5,11.5,0,0,0-2.25-.17c-.63,0-1-.12-1-.52s.4-.52,1.26-.52c1.56,0,3.23.06,4.67.06s2.82.11,3.63.11c1.84,0,13.3,0,14.4-.05s2-.24,2.48-.35a5,5,0,0,1,.92-.23c.29,0,.34.23.34.52s-.28,1.09-.46,3.74c-.06.58-.17,3.11-.28,3.8-.06.29-.18.64-.58.64s-.52-.29-.52-.81a6.14,6.14,0,0,0-.35-2.07c-.4-1-1-1.73-3.85-2.08-1-.11-7-.23-8.18-.23-.29,0-.41.18-.41.58V31c0,.41.06.64.41.64,1.26,0,7.89,0,9.21-.12s2.25-.29,2.77-.86.63-.75.92-.75.4.11.4.46-.23,1.27-.46,4.21c-.06,1.15-.23,3.45-.23,3.85s0,1.1-.52,1.1a.46.46,0,0,1-.52-.52,14.21,14.21,0,0,0-.22-2.07c-.29-1.16-1.1-2-3.23-2.25-1.1-.11-6.8-.17-8.18-.17-.29,0-.35.23-.35.57v4.55c0,2,0,7.26,0,8.93.12,4,1,4.84,6.92,4.84,1.49,0,3.91,0,5.41-.69s2.19-1.9,2.59-4.26c.12-.63.23-.87.64-.87s.46.47.46,1a45,45,0,0,1-.75,6.4c-.41,1.49-.92,1.49-3.11,1.49-4.32,0-7.49-.11-10-.17s-4.26-.17-6-.17c-.63,0-1.9,0-3.28.06s-2.83.11-4,.11c-.75,0-1.15-.17-1.15-.58s.23-.46.92-.46a9.22,9.22,0,0,0,2.08-.23c1.15-.23,1.44-1.5,1.66-3.16.29-2.43.29-7,.29-12.28V29.5" transform="translate(-0.87 -0.26)"/><path class="cls-1" d="M172,55.66c-.92-.4-1.09-.69-1.09-2,0-3.17.23-6.62.28-7.55s.24-1.49.69-1.49.58.51.58,1a12.1,12.1,0,0,0,.52,2.93c1.27,4.27,4.67,5.82,8.24,5.82,5.18,0,7.72-3.51,7.72-6.56,0-2.83-.87-5.48-5.65-9.22l-2.65-2.08c-6.34-5-8.53-9-8.53-13.65,0-6.34,5.31-10.89,13.31-10.89A27.9,27.9,0,0,1,193,13c.52.12.81.29.81.69,0,.75-.23,2.42-.23,6.92,0,1.26-.17,1.73-.63,1.73s-.58-.35-.58-1a7,7,0,0,0-1.5-3.8,7.27,7.27,0,0,0-6.28-2.83c-4.26,0-6.85,2.48-6.85,5.94,0,2.65,1.32,4.66,6.11,8.29l1.61,1.21c7,5.24,9.44,9.22,9.44,14.69a11.59,11.59,0,0,1-5.41,10,16.61,16.61,0,0,1-9.16,2.37,20,20,0,0,1-8.41-1.5" transform="translate(-0.87 -0.26)"/><path class="cls-1" d="M215.32,16l-8.58.23c-3.34.11-4.72.4-5.59,1.67a6.71,6.71,0,0,0-1,2c-.12.46-.3.69-.64.69s-.52-.28-.52-.92c0-.92,1.1-6.16,1.21-6.62.17-.75.35-1.1.69-1.1a13,13,0,0,0,2.48.69c1.67.18,3.86.29,5.76.29H232a26.92,26.92,0,0,0,4-.29,13.53,13.53,0,0,1,1.55-.28c.41,0,.46.34.46,1.21,0,1.21-.17,5.18-.17,6.68-.06.57-.17.92-.52.92s-.57-.29-.63-1.15l-.06-.64c-.11-1.49-1.67-3.11-6.8-3.22L222.52,16V39.64c0,5.3,0,9.85.29,12.33.18,1.61.52,2.88,2.25,3.11a23.34,23.34,0,0,0,2.94.23c.63,0,.92.18.92.46s-.46.58-1.09.58c-3.81,0-7.43-.17-9.05-.17-1.32,0-4.95.17-7.26.17-.75,0-1.15-.17-1.15-.58s.23-.46.92-.46a9.15,9.15,0,0,0,2.08-.23c1.15-.23,1.49-1.5,1.67-3.16.28-2.43.28-7,.28-12.28V16" transform="translate(-0.87 -0.26)"/><path class="cls-1" d="M63.77,38.1h0c0-22.55-14-33.36-26.83-33.36-12.21,0-23.12,7.83-23.12,29.45,0,22.17,13.42,34.47,28.43,34.47,7.45,0,21.52-3.26,21.52-30.56M53.43,70.9A46.62,46.62,0,0,1,38.8,73.32C11.49,73.32.87,53.1.87,36.33.87,21.14,11.77.26,39.08.26c22.27,0,37.74,13.52,37.74,35.32A37.36,37.36,0,0,1,60.6,66.24l18.74,9.6C99,85.9,111.39,86.93,117.73,86.93a51.94,51.94,0,0,0,18.17-3.26,6,6,0,0,1,1.4-.47.84.84,0,0,1,.84.84c0,.56-.47.84-1.12,1.12a68.14,68.14,0,0,1-29.54,7c-14.07,0-24-3.64-39.42-12.68Z" transform="translate(-0.87 -0.26)"/><path class="cls-2" d="M163.43,74.3a2.74,2.74,0,0,0-2.3-1,4.66,4.66,0,0,0-4.32,3.45l-.6,2.11,5.85,0-.61,2.11-5.85,0-4.23,14.57H149l4.23-14.57-2.32,0,.61-2.1h2.32l.53-1.83a7.66,7.66,0,0,1,7.18-5.81,3.78,3.78,0,0,1,3.57,1.79l-1.67,1.36" transform="translate(-0.87 -0.26)"/><path class="cls-2" d="M167.8,93.62h0c3.28,0,6.27-2.6,7.37-6.37s-.37-6.42-3.65-6.43-6.28,2.61-7.37,6.37.4,6.42,3.65,6.43m4.33-14.9c4.67,0,6.91,3.5,5.45,8.54s-5.72,8.49-10.39,8.46-6.88-3.5-5.42-8.54S167.45,78.69,172.13,78.72Z" transform="translate(-0.87 -0.26)"/><path class="cls-2" d="M191.36,81.08c-3.46,0-6.72,2.87-7.87,6.41l-2.36,8.14h-2.42l4.84-16.68H186l-1.39,4.77c1.89-3,4.65-4.92,7.44-4.91l-.66,2.27" transform="translate(-0.87 -0.26)"/><path class="cls-2" d="M208.46,95.57a9.42,9.42,0,0,1-7.23-3.25l1.38-1.41a7.61,7.61,0,0,0,5.79,2.47c2.95,0,5.08-1.74,5.08-4.21,0-4.89-11.8-3.19-11.8-10.29,0-3.73,2.92-6.14,6.91-6.14A9.11,9.11,0,0,1,215.73,76l-1.35,1.44a7,7,0,0,0-5.57-2.5c-2.79,0-4.5,1.6-4.5,3.82,0,5.31,11.8,3.67,11.8,10.26,0,4-3.37,6.56-7.65,6.56" transform="translate(-0.87 -0.26)"/><path class="cls-2" d="M222.77,75.12v9.61h5a4.81,4.81,0,0,0,0-9.61h-5M220.1,72.9h8a7,7,0,0,1,0,14h-5.3v8.46H220.1Z" transform="translate(-0.87 -0.26)"/><path class="cls-2" d="M240.8,87h10.67l-5.33-11.28L240.8,87m6.69-14.11,10.44,22.51h-2.6l-2.89-6.18H239.83l-2.89,6.18H234.3L244.79,72.9Z" transform="translate(-0.87 -0.26)"/><path class="cls-2" d="M278.48,92.32a11.51,11.51,0,0,1-8.36,3.25c-6.75,0-11.38-4.66-11.38-11.42s4.66-11.41,11.41-11.41A11.49,11.49,0,0,1,278.48,76l-1.58,1.6a8.84,8.84,0,0,0-6.65-2.66c-5.24,0-8.88,3.79-8.88,9.22s3.64,9.23,8.88,9.23a8.74,8.74,0,0,0,6.65-2.67l1.58,1.61" transform="translate(-0.87 -0.26)"/><polyline class="cls-2" points="281.56 72.64 296.86 72.64 296.86 74.86 284.23 74.86 284.23 82.54 295.96 82.54 295.96 84.76 284.23 84.76 284.23 92.92 297.12 92.92 297.12 95.14 281.56 95.14 281.56 72.64"/></svg>